<?xml version="1.0" standalone="no"?>
<!DOCTYPE svg PUBLIC "-//W3C//DTD SVG 20010904//EN"
 "http://www.w3.org/TR/2001/REC-SVG-20010904/DTD/svg10.dtd">
<svg version="1.0" xmlns="http://www.w3.org/2000/svg"
 width="512.000000pt" height="512.000000pt" viewBox="0 0 512.000000 512.000000"
 preserveAspectRatio="xMidYMid meet">
<metadata>
Created by potrace 1.14, written by Peter Selinger 2001-2017
</metadata>
<g transform="translate(0.000000,512.000000) scale(0.100000,-0.100000)"
fill="#000000" stroke="none">
<path d="M2248 5083 c7 -3 16 -2 19 1 4 3 -2 6 -13 5 -11 0 -14 -3 -6 -6z"/>
<path d="M2618 5079 c-7 -5 -65 -9 -128 -9 -63 0 -144 -5 -180 -10 -36 -5 -66
-5 -68 -1 -2 5 -35 2 -75 -6 -40 -8 -95 -19 -124 -24 -29 -6 -69 -22 -90 -36
-41 -28 -179 -87 -254 -107 -69 -20 -254 -104 -348 -159 -45 -27 -94 -50 -108
-52 -14 -1 -32 -10 -41 -20 -10 -10 -11 -15 -5 -11 9 5 11 2 7 -9 -4 -9 -27
-30 -53 -47 -25 -18 -48 -34 -51 -38 -3 -3 -22 -19 -42 -34 -21 -16 -38 -35
-38 -43 0 -7 -16 -23 -35 -34 -19 -12 -35 -24 -35 -28 0 -4 -24 -21 -53 -39
-56 -34 -150 -128 -142 -142 6 -10 -92 -100 -109 -100 -7 0 -25 -17 -40 -38
-27 -39 -105 -119 -91 -92 14 26 96 133 134 175 20 23 11 16 -19 -15 -50 -51
-158 -191 -152 -197 1 -2 -5 -11 -14 -20 -41 -47 -154 -244 -154 -270 0 -15
38 38 61 85 38 79 49 93 46 64 0 -12 -5 -22 -10 -22 -4 0 -5 -5 -1 -12 5 -7 3
-8 -6 -3 -10 6 -12 4 -7 -9 5 -11 3 -15 -5 -10 -8 5 -9 2 -5 -10 4 -9 3 -15
-2 -12 -8 5 -40 -60 -47 -98 -3 -11 -13 -33 -23 -50 -14 -22 -18 -44 -16 -72
3 -32 0 -46 -15 -59 -11 -10 -20 -23 -20 -28 0 -17 45 38 55 68 6 17 15 28 20
25 6 -3 9 -8 7 -12 -1 -5 5 -8 13 -8 8 0 22 15 30 33 l14 32 -6 -30 c-4 -16
-6 -38 -5 -47 0 -10 -4 -18 -10 -18 -5 0 -7 -7 -4 -16 4 -10 -1 -25 -10 -36
-10 -10 -15 -21 -11 -24 3 -3 -4 -22 -15 -42 -11 -20 -21 -46 -23 -57 -5 -42
-18 -75 -28 -75 -6 0 -8 -3 -4 -6 3 -3 -3 -23 -14 -42 -10 -20 -19 -46 -20
-57 0 -20 0 -20 -9 0 -8 19 -9 19 -9 -2 -1 -13 4 -23 10 -23 5 0 7 -5 4 -10
-4 -6 -10 -8 -15 -5 -4 3 -11 -1 -14 -7 -3 -7 -3 1 -1 17 4 24 2 22 -9 -10
-10 -28 -15 -34 -15 -17 -1 23 -26 31 -34 10 -14 -33 -5 32 14 105 15 58 19
95 14 127 l-7 45 -24 -80 c-14 -44 -23 -91 -21 -105 2 -20 5 -17 11 15 4 22
14 60 21 85 l13 45 -4 -45 c-6 -57 -25 -130 -33 -130 -3 0 -7 -28 -9 -62 -3
-54 -1 -60 13 -48 12 10 15 10 15 -3 0 -10 6 -13 20 -10 12 3 20 0 20 -6 0 -7
13 -23 29 -37 25 -20 28 -29 24 -61 -3 -21 -12 -46 -21 -56 -15 -17 -14 -17 4
-11 10 4 22 11 25 16 3 5 16 11 30 13 13 3 25 9 27 15 2 5 8 10 14 10 5 0 8
-6 5 -12 -2 -7 3 -19 12 -26 15 -12 14 -13 -1 -8 -18 5 -34 -20 -16 -26 7 -3
8 -10 4 -17 -6 -9 -11 -9 -21 -1 -10 8 -14 7 -18 -2 -4 -8 -8 -9 -14 -3 -4 6
-21 11 -36 13 -26 3 -27 1 -21 -25 4 -15 12 -34 18 -42 9 -11 7 -13 -13 -6
-18 6 -22 4 -15 -6 5 -9 -1 -8 -18 3 -22 15 -28 15 -38 3 -8 -10 -8 -19 0 -34
10 -20 11 -20 48 -3 20 9 39 20 40 25 4 7 55 36 69 39 5 0 14 9 21 20 7 10 18
15 24 12 7 -4 8 -2 4 5 -4 7 2 20 16 31 28 24 52 26 44 5 -3 -9 1 -18 10 -22
13 -5 13 -7 2 -14 -9 -6 -4 -9 15 -9 21 0 30 6 34 20 3 11 9 20 14 20 5 0 4
12 -2 28 -15 35 -20 74 -9 67 4 -3 13 2 20 10 11 13 9 20 -9 38 -27 30 -28 67
-1 67 11 0 20 4 20 8 0 5 16 16 36 25 30 15 34 20 24 33 -10 12 -10 20 0 42 7
15 14 40 16 55 5 39 14 52 25 36 6 -11 10 -11 19 -1 5 6 7 10 4 7 -10 -7 -34
15 -34 32 0 8 5 11 10 8 6 -3 10 -1 10 5 0 6 5 8 12 4 9 -6 9 -3 -1 9 -10 13
-11 24 -2 48 6 18 11 40 11 50 0 26 69 114 89 114 9 0 27 8 41 18 13 9 19 17
13 17 -24 0 -25 40 -1 78 18 29 96 127 150 187 16 17 -5 -28 -21 -47 -8 -9
-16 -24 -17 -33 -2 -13 0 -14 12 -4 12 10 13 9 8 -5 -3 -9 -1 -16 5 -16 6 0
10 6 9 13 -2 6 2 11 9 10 6 -1 33 23 59 55 37 44 40 49 13 24 -20 -18 -39 -29
-44 -25 -4 5 -6 3 -2 -2 3 -6 2 -17 -3 -25 -10 -17 -43 -23 -37 -7 3 7 10 11
16 9 7 -1 10 2 7 7 -4 5 2 16 12 23 10 7 24 28 32 46 10 25 18 32 32 29 10 -3
21 0 25 5 3 7 1 8 -5 4 -17 -10 -15 9 3 24 8 7 13 16 10 20 -3 5 -1 11 4 14
11 7 9 -13 -4 -34 -5 -9 0 -8 13 4 20 17 21 21 7 36 -13 15 -13 19 8 38 13 12
27 19 32 15 4 -5 5 -3 1 4 -3 6 3 18 16 27 19 14 23 14 34 -2 11 -14 15 -15
23 -3 5 8 14 10 22 5 12 -6 12 -5 1 8 -10 13 -9 18 5 29 16 12 17 12 6 -2 -10
-13 -10 -16 1 -16 14 0 16 41 2 54 -5 4 -6 3 -3 -3 4 -7 0 -15 -8 -18 -13 -4
-13 -2 -5 14 13 24 51 51 62 44 5 -3 7 0 6 7 -2 7 6 15 17 17 11 2 22 7 25 11
5 7 96 73 118 86 12 6 12 3 2 -16 -7 -13 -9 -21 -5 -17 4 4 16 3 25 -2 13 -7
20 -6 24 6 3 8 10 12 16 9 5 -3 7 0 4 8 -3 10 5 18 26 26 17 6 29 15 25 21 -3
5 -8 10 -11 10 -3 0 -2 -4 1 -10 7 -11 -22 -12 -45 -2 -8 4 -16 15 -16 25 -2
14 6 17 40 17 23 0 36 -4 29 -8 -9 -6 -7 -11 7 -20 12 -7 21 -8 25 -2 4 6 1 9
-5 8 -7 -2 -14 7 -16 20 -3 14 1 22 10 22 8 0 30 8 48 19 37 20 71 21 107 2
14 -8 21 -9 17 -2 -7 11 8 15 52 13 12 -1 22 4 22 11 0 8 3 8 9 -2 6 -9 10 -3
13 21 3 30 1 34 -16 30 -13 -3 -17 -1 -14 9 5 18 63 45 113 53 38 6 39 5 16
-7 l-24 -14 33 -12 c18 -6 34 -11 35 -11 1 0 2 7 2 15 0 10 -6 14 -16 10 -12
-4 -12 -2 2 9 14 11 15 15 5 20 -7 3 -1 3 15 0 15 -4 27 -2 27 4 0 5 20 8 45
6 25 -1 43 1 40 6 -3 5 4 11 15 15 11 3 20 11 20 16 0 5 8 9 18 9 9 0 13 -4 7
-8 -13 -9 -18 -35 -5 -27 5 3 10 1 10 -6 0 -18 117 5 135 27 11 13 99 34 145
34 17 0 30 5 30 10 0 6 48 10 125 10 77 0 125 -4 125 -10 0 -5 5 -10 11 -10 5
0 8 4 5 9 -4 5 3 7 14 4 11 -3 23 -9 26 -14 3 -5 10 -9 15 -9 6 0 7 5 3 12 -5
8 0 9 14 6 12 -4 20 -2 17 2 -8 13 32 22 58 14 20 -7 19 -9 -13 -15 -22 -5
-14 -6 24 -3 42 4 56 3 51 -6 -5 -7 1 -9 18 -4 31 7 68 -3 64 -18 -1 -6 39
-21 88 -33 50 -12 133 -38 185 -58 52 -19 102 -34 111 -34 33 1 109 -26 102
-36 -3 -6 -1 -7 5 -3 14 9 62 -22 62 -40 0 -7 18 -23 40 -35 24 -14 40 -30 40
-41 0 -10 7 -18 15 -18 9 0 28 -8 43 -19 15 -10 39 -26 55 -35 15 -9 27 -24
27 -34 0 -10 28 -45 62 -78 180 -171 267 -279 380 -469 31 -53 88 -186 142
-337 10 -27 21 -48 26 -48 10 0 40 -85 40 -113 0 -12 -5 -17 -14 -14 -133 51
-488 122 -738 147 -228 23 -504 26 -723 9 l-142 -12 -59 34 c-33 19 -60 41
-62 49 -2 8 -12 23 -24 33 -11 10 -18 20 -14 24 3 3 16 -2 28 -13 22 -18 22
-18 8 0 -8 10 -33 27 -55 37 l-40 18 45 0 c31 1 40 4 31 10 -11 7 -9 10 10 14
13 3 -2 5 -34 4 -58 -1 -59 0 -80 38 -12 22 -38 50 -57 63 -36 24 -47 50 -20
44 8 -2 12 0 7 4 -4 4 3 19 15 33 13 14 16 20 7 13 -9 -6 -20 -8 -24 -4 -5 4
-5 2 -1 -5 8 -14 -10 -28 -18 -14 -8 13 51 54 65 45 8 -4 9 -3 5 4 -4 7 2 16
16 21 13 5 32 19 43 32 l20 24 -20 -15 c-19 -14 -19 -14 -4 5 9 11 19 28 22
37 5 14 -2 13 -36 -9 l-42 -26 29 39 c29 38 29 39 3 15 -15 -13 -37 -25 -49
-27 -13 -1 -25 -3 -27 -3 -2 -1 2 -7 8 -15 10 -12 7 -18 -18 -30 -29 -15 -30
-15 -26 6 3 12 17 35 32 52 17 19 11 15 -15 -9 -23 -21 -43 -35 -43 -30 -1 6
-2 15 -4 20 -1 6 -3 17 -4 25 -3 23 -17 -7 -25 -54 -7 -36 -9 -38 -36 -33 -53
11 -95 -60 -55 -93 13 -11 12 -16 -10 -37 -13 -14 -22 -30 -18 -36 3 -5 1 -7
-5 -3 -14 8 -42 -32 -42 -61 0 -13 -4 -23 -10 -23 -12 0 -14 -56 -2 -63 4 -2
2 -2 -5 -1 -6 2 -13 -2 -16 -9 -2 -8 -12 -6 -33 6 l-29 18 24 -20 c13 -12 30
-21 39 -21 13 0 12 -3 -4 -16 -10 -8 -13 -12 -5 -8 7 3 17 1 21 -7 7 -10 12
-10 27 2 16 13 17 12 4 -3 -12 -16 -10 -19 13 -28 15 -5 29 -17 33 -26 4 -12
14 -14 34 -10 19 4 29 1 29 -7 0 -8 4 -7 10 3 7 12 11 8 16 -18 5 -22 11 -31
20 -28 8 3 14 3 14 0 0 -2 -12 -9 -26 -14 -15 -6 -24 -16 -21 -24 4 -10 -4
-12 -34 -9 -32 3 -39 1 -39 -14 0 -14 -2 -15 -9 -4 -8 12 -34 13 -81 0 -8 -2
-14 2 -12 9 1 6 -2 12 -8 12 -10 0 -14 -15 -10 -35 1 -5 -15 6 -34 24 -39 38
-57 34 -59 -12 -2 -21 -6 -24 -32 -20 -16 3 -35 9 -42 14 -6 6 -23 7 -38 3
-21 -5 -24 -9 -13 -16 9 -7 7 -8 -9 -5 -13 3 -23 1 -23 -5 0 -5 -4 -7 -9 -4
-18 11 -60 -13 -67 -38 -5 -23 -49 -47 -89 -51 -36 -3 -132 -30 -144 -41 -11
-10 -11 -19 -1 -49 7 -20 18 -39 26 -42 7 -3 48 8 91 25 108 40 134 46 127 28
-3 -8 -12 -12 -20 -9 -10 4 -14 -3 -14 -21 0 -15 -7 -40 -15 -56 -9 -17 -13
-30 -10 -30 4 0 -1 -10 -9 -22 -9 -12 -16 -25 -16 -28 0 -3 21 -17 48 -30 26
-14 50 -28 53 -33 3 -4 16 -10 29 -12 13 -3 46 -26 74 -52 27 -27 44 -39 36
-28 -7 11 8 -4 34 -32 l48 -53 69 0 c61 0 69 -2 69 -19 0 -23 16 -37 53 -46
30 -8 38 -26 10 -22 -32 4 -176 -14 -195 -24 -19 -10 -24 -44 -8 -54 14 -9 12
-25 -3 -25 -23 0 -119 -31 -113 -37 3 -3 20 0 38 7 73 26 374 55 312 30 -12
-4 -24 -15 -27 -24 -4 -9 -18 -16 -32 -16 -54 0 -130 -51 -109 -73 3 -3 1 -14
-5 -24 -10 -17 -10 -17 -11 0 0 12 -8 17 -30 17 -16 0 -30 -4 -30 -8 0 -5 -19
-14 -42 -21 -24 -7 -55 -19 -70 -27 -14 -8 -34 -14 -45 -14 -10 0 -38 -12 -63
-26 -25 -14 -99 -42 -165 -62 -66 -20 -123 -40 -127 -46 -4 -6 -8 -24 -8 -39
0 -20 -8 -32 -30 -45 -16 -9 -30 -20 -30 -24 0 -4 -25 -53 -55 -108 -56 -103
-61 -125 -37 -182 12 -29 29 -40 18 -13 -3 8 -2 15 3 15 13 0 10 -83 -5 -104
-7 -10 -11 -23 -10 -30 2 -6 1 -8 -1 -3 -9 15 -23 -5 -23 -34 0 -17 4 -28 8
-25 19 11 31 -10 23 -39 -5 -17 -10 -23 -11 -15 -1 9 -5 5 -11 -9 -12 -31 -8
-34 19 -15 12 8 19 21 16 29 -9 22 13 18 28 -4 14 -20 31 -17 35 7 2 7 -7 12
-21 12 -30 0 -40 14 -27 37 6 10 11 14 11 9 0 -6 6 -1 14 9 14 19 53 14 41 -5
-3 -5 -2 -10 3 -10 5 0 7 -11 4 -25 -2 -15 0 -25 7 -25 6 0 11 -7 11 -15 0 -8
7 -15 16 -15 10 0 14 5 10 15 -3 10 1 18 11 22 10 4 29 19 43 33 14 15 31 25
38 22 7 -2 12 3 12 11 0 13 5 13 30 4 17 -6 32 -19 35 -28 5 -16 8 -16 37 -1
25 12 33 13 36 3 3 -8 9 -4 16 10 13 26 26 28 157 31 76 1 101 -2 126 -17 23
-13 40 -16 69 -10 l39 7 -34 29 c-35 28 -35 28 -15 50 17 20 17 22 2 16 -20
-7 -25 8 -7 19 14 8 30 -16 25 -38 -4 -18 34 -52 92 -82 45 -23 57 -17 58 30
2 78 35 204 55 204 4 0 6 -7 2 -16 -4 -11 -2 -15 6 -13 7 3 13 9 13 14 1 6 8
16 17 23 9 8 10 11 4 7 -19 -9 -16 9 5 35 16 20 21 21 40 9 12 -8 22 -17 22
-21 0 -14 -23 -8 -35 8 -11 16 -12 16 -18 1 -11 -30 21 -39 171 -46 7 -1 11
-5 7 -10 -10 -18 75 -25 92 -8 14 15 43 7 43 -12 0 -10 7 -24 16 -32 18 -15
18 -106 -1 -154 -7 -16 -11 -47 -10 -67 1 -20 -2 -35 -7 -32 -4 3 -8 -7 -8
-21 0 -14 -4 -24 -8 -21 -4 2 -14 -4 -21 -16 -7 -11 -8 -17 -2 -13 15 9 14 -1
-4 -35 -14 -27 -14 -30 0 -30 8 0 14 3 13 8 -5 13 33 100 49 114 14 11 15 10
9 -10 -5 -13 -3 -22 3 -22 6 0 11 8 12 18 1 11 4 9 9 -8 5 -17 8 -19 9 -7 1
24 20 21 30 -5 7 -20 8 -20 16 -2 5 10 9 21 10 24 12 47 13 47 91 45 l75 -3
-7 67 c-4 36 -7 72 -7 79 0 6 -4 12 -7 12 -4 0 -10 12 -13 28 -4 15 -13 49
-21 75 -9 26 -11 45 -6 42 6 -4 10 -14 10 -23 0 -9 7 -26 15 -36 8 -10 12 -23
9 -27 -3 -5 2 -6 10 -3 9 4 18 -1 22 -10 5 -12 21 -16 71 -16 35 0 74 -5 86
-11 27 -14 22 -9 -28 31 -39 31 -39 31 -10 24 41 -9 46 -13 38 -27 -4 -7 0 -6
10 2 16 12 22 8 18 -13 -1 -5 6 -18 16 -29 17 -20 17 -20 -1 -13 -31 11 1 -22
43 -45 22 -11 28 -18 16 -17 -11 2 -26 9 -33 16 -8 7 -18 9 -24 6 -6 -4 -8 -2
-5 3 6 9 -13 23 -30 23 -10 0 31 -41 51 -52 32 -17 163 -20 194 -5 17 9 36 11
52 6 l25 -8 -25 1 c-46 1 -57 -3 -35 -12 32 -14 103 -11 133 4 61 31 142 31
142 1 0 -17 96 -75 123 -75 10 0 17 8 17 19 0 23 16 36 25 21 7 -11 37 21 48
53 9 23 34 22 47 -3 6 -11 18 -20 28 -20 13 0 14 2 3 9 -8 5 -9 11 -3 15 6 3
14 2 17 -4 8 -13 -14 -42 -25 -35 -4 3 -10 -2 -14 -10 -3 -8 -1 -15 4 -15 18
0 10 -14 -21 -39 -28 -22 -31 -22 -43 -6 -9 13 -19 16 -32 11 -18 -7 -18 -9 4
-23 12 -9 22 -22 22 -29 0 -8 7 -14 16 -14 8 0 13 4 10 9 -3 5 2 15 12 22 15
12 16 12 4 -2 -14 -19 -1 -35 33 -41 21 -3 21 -3 12 85 -3 32 -1 36 15 31 10
-3 18 0 18 6 0 7 7 9 16 6 31 -12 33 6 3 34 -16 17 -41 30 -54 30 -14 0 -25 4
-25 9 0 5 -9 13 -20 16 -11 3 -20 15 -20 26 0 10 -6 19 -14 19 -7 0 -19 15
-26 33 -26 70 -30 76 -42 72 -10 -4 -13 10 -14 50 0 33 3 50 8 43 4 -8 8 6 8
35 0 34 -3 46 -12 41 -7 -5 -9 -2 -6 8 9 23 -3 34 -63 52 -72 23 -77 26 -83
59 -7 41 -15 48 -49 47 -18 -1 -49 3 -69 8 -20 5 -39 7 -42 4 -4 -3 -6 1 -6 8
0 7 -3 10 -7 7 -3 -4 -13 -2 -20 5 -11 9 -17 9 -24 -3 -8 -11 -9 -10 -7 6 2
14 -8 25 -37 41 -22 12 -43 19 -47 17 -5 -2 -8 0 -8 6 0 6 -19 19 -42 29 -24
11 -56 31 -71 46 -15 14 -35 26 -43 26 -8 0 -17 7 -21 16 -3 8 -12 13 -19 10
-7 -3 -16 0 -20 6 -5 7 -2 9 7 4 8 -4 4 1 -8 10 -13 9 -23 22 -23 29 0 6 -10
16 -22 22 -17 7 28 11 167 15 160 5 208 10 302 32 104 25 112 29 123 57 21 49
3 56 -77 31 -77 -24 -198 -42 -278 -42 -29 0 -55 -4 -57 -8 -1 -4 -48 -5 -103
-2 -105 7 -152 23 -179 61 -11 16 -21 20 -39 15 -15 -3 -29 -1 -36 8 -6 7 -29
16 -51 20 -22 3 -40 11 -40 17 0 5 5 7 10 4 6 -3 10 -1 10 5 0 6 5 8 11 5 17
-11 53 3 67 25 11 18 8 30 -24 91 -35 68 -36 72 -22 98 9 14 19 58 22 96 4 39
10 106 15 150 l10 80 -32 35 c-18 19 -42 49 -54 66 l-22 32 52 6 c212 26 588
25 837 -4 209 -23 429 -68 578 -118 110 -36 113 -38 109 -64 -2 -15 0 -25 4
-23 4 3 10 -12 14 -33 4 -20 10 -41 14 -47 20 -26 59 -617 42 -623 -6 -2 -11
-10 -11 -18 0 -8 -3 -14 -7 -14 -10 0 -11 -103 -2 -110 13 -9 14 -45 2 -43 -6
2 -12 -5 -12 -15 0 -9 -3 -32 -7 -51 -5 -23 -9 -29 -15 -20 -7 11 -9 11 -9 -1
-1 -8 -7 -28 -15 -45 l-14 -30 5 35 4 35 -10 -30 c-6 -16 -8 -49 -5 -73 3 -27
1 -41 -5 -37 -6 3 -10 -1 -10 -9 0 -8 -11 -27 -25 -42 -26 -28 -32 -40 -16
-30 11 7 2 -34 -12 -51 -5 -7 -6 -13 -2 -13 4 0 14 8 21 18 12 16 13 15 9 -6
-2 -12 1 -22 7 -22 7 0 8 -12 4 -32 -8 -43 -57 -161 -71 -170 -7 -5 -7 -8 0
-8 6 0 19 -13 28 -30 10 -16 14 -30 8 -30 -6 0 -8 -8 -5 -17 4 -12 -4 -7 -21
11 l-26 28 -19 -22 c-32 -37 -77 -34 -71 3 1 4 -7 3 -18 -2 -10 -6 -22 -7 -26
-3 -3 4 -5 0 -3 -8 5 -23 19 -30 68 -30 33 0 41 -3 30 -10 -8 -5 -25 -10 -36
-10 -17 0 -21 -6 -21 -27 0 -16 2 -23 4 -18 2 6 19 9 38 7 21 -3 42 1 52 9 15
12 16 12 10 -3 -3 -10 -4 -25 -1 -33 7 -17 44 -21 44 -4 0 5 -6 7 -12 3 -7 -4
-5 2 5 12 12 13 20 16 25 8 5 -9 11 -8 20 2 12 14 12 15 -7 18 -18 2 -24 16
-7 16 9 0 14 4 11 10 -3 6 1 7 10 3 12 -4 13 -8 5 -13 -8 -5 -8 -10 -2 -14 14
-9 107 27 110 43 4 19 24 37 51 46 18 5 22 4 16 -6 -5 -7 1 -6 14 4 13 8 30
13 37 10 10 -3 12 0 8 10 -3 8 0 18 5 22 6 3 9 11 6 16 -4 5 -3 15 2 21 4 7 7
22 8 32 0 11 6 21 14 24 10 3 12 -1 8 -17 -3 -14 -1 -21 6 -18 7 2 12 10 12
18 1 8 6 13 13 12 6 -2 9 3 6 11 -3 7 7 23 21 34 15 12 24 26 20 32 -3 5 -2
10 2 10 5 0 9 8 10 18 4 43 12 70 31 102 11 19 23 46 26 60 7 24 6 24 -9 -2
-21 -37 -24 -35 -20 10 4 36 64 199 65 175 0 -7 11 -13 25 -13 18 0 23 -4 19
-15 -4 -8 -2 -15 4 -15 12 0 39 70 46 122 2 21 1 38 -3 38 -4 0 -5 20 -1 44 4
25 2 52 -3 62 -7 12 -6 15 2 10 6 -4 11 -2 11 3 0 6 -4 11 -10 11 -5 0 -10 5
-10 11 0 5 5 7 10 4 6 -3 10 1 10 10 0 9 -4 13 -10 10 -5 -3 -10 -1 -10 4 0 6
3 11 8 11 4 0 8 26 10 58 1 31 7 70 14 85 7 18 9 65 5 133 -6 101 -5 105 14
99 14 -5 19 -2 20 12 2 39 -2 130 -8 173 -3 25 -6 61 -8 80 -4 69 -62 263 -75
255 -5 -3 -11 3 -13 12 -3 10 -3 -7 -1 -37 2 -30 8 -71 14 -90 13 -45 12 -49
-5 -26 -15 19 -15 19 -15 -2 0 -12 -4 -22 -10 -22 -15 0 -12 38 4 47 9 5 11
15 5 28 -7 19 -8 19 -8 -2 -1 -13 -7 -23 -14 -23 -15 0 -15 1 -17 77 -1 29 -5
51 -8 49 -4 -2 -7 9 -8 24 -1 37 -41 143 -62 167 -10 10 -18 26 -20 35 -1 9
-9 30 -17 45 -18 33 -19 49 -5 58 6 4 10 3 9 -2 -3 -17 1 -33 9 -33 5 0 7 14
4 30 -2 17 -9 30 -14 30 -5 0 -7 4 -4 8 2 4 -4 26 -14 47 -10 22 -19 33 -19
26 -1 -8 -15 7 -32 33 -16 27 -28 50 -25 53 2 3 12 -9 20 -25 9 -17 20 -34 26
-37 15 -9 -82 170 -108 199 -11 14 -28 39 -37 57 -15 29 -203 263 -254 316
-23 24 -28 38 -10 27 6 -3 3 5 -6 20 -14 20 -14 26 -4 26 10 1 9 4 -3 14 -10
7 -18 18 -18 23 0 5 -10 18 -22 29 -20 18 -21 18 -15 1 4 -11 3 -16 -3 -12 -6
3 -10 15 -10 26 0 25 -14 38 -145 131 -55 39 -109 80 -121 90 -11 10 -23 15
-27 12 -3 -4 -20 8 -37 25 -57 56 -299 175 -375 183 -16 2 -32 5 -35 8 -10 11
-68 50 -75 50 -3 0 -3 -4 0 -10 3 -6 -1 -7 -9 -4 -9 3 -14 10 -11 14 3 5 -5 6
-17 2 -14 -3 -19 -2 -14 6 5 8 -1 13 -16 14 -13 0 -36 3 -53 5 -16 2 -38 4
-47 4 -10 0 -20 5 -23 10 -4 5 -11 7 -16 4 -5 -4 -66 8 -134 25 -82 20 -152
31 -201 31 -63 0 -77 4 -87 20 -14 22 -42 26 -34 4 5 -11 0 -13 -21 -10 -90
16 -143 21 -154 14z m-836 -656 c-6 -2 -10 -9 -6 -14 3 -5 0 -9 -5 -9 -12 0
-14 13 -4 23 3 4 11 7 17 6 6 0 5 -3 -2 -6z m-32 -18 c0 -8 -4 -15 -10 -15 -5
0 -7 7 -4 15 4 8 8 15 10 15 2 0 4 -7 4 -15z m-1292 -520 c-12 -24 -26 -41
-31 -38 -5 3 -5 8 1 12 5 3 13 17 17 31 6 21 21 39 32 40 2 0 -7 -20 -19 -45z
m53 -70 c14 9 11 -2 -7 -19 -8 -9 -20 -16 -25 -16 -13 0 -11 44 4 59 10 10 13
8 15 -9 2 -11 8 -18 13 -15z m4166 -24 c10 -16 9 -20 -3 -25 -9 -3 -12 -1 -9
4 3 6 2 10 -3 10 -6 0 -12 7 -16 15 -8 22 17 18 31 -4z m-4242 -70 c-7 -22
-10 -43 -7 -47 4 -4 2 -4 -4 -1 -7 4 -14 -6 -19 -26 -5 -22 -9 -26 -12 -15 -4
17 40 128 51 128 3 0 -1 -18 -9 -39z m2164 36 c-2 -1 -13 -9 -24 -17 -19 -14
-19 -14 -6 3 7 9 18 17 24 17 6 0 8 -1 6 -3z m1969 -17 c7 -11 11 -20 9 -20
-2 0 -12 9 -22 20 -10 11 -14 20 -9 20 5 0 15 -9 22 -20z m158 -20 c15 -22 24
-43 20 -47 -3 -3 -6 -2 -6 4 0 5 -11 23 -25 39 -24 27 -31 44 -20 44 3 0 17
-18 31 -40z m-83 -4 c4 -10 0 -12 -15 -8 -15 4 -17 7 -6 13 17 11 15 11 21 -5z
m-4230 -121 c-3 -9 -8 -14 -10 -11 -3 3 -2 9 2 15 9 16 15 13 8 -4z m4351 -71
c3 -8 2 -12 -4 -9 -6 3 -10 10 -10 16 0 14 7 11 14 -7z m-2187 -16 c-3 -8 -6
-5 -6 6 -1 11 2 17 5 13 3 -3 4 -12 1 -19z m-2175 -50 c-7 -7 -12 -8 -12 -2 0
14 12 26 19 19 2 -3 -1 -11 -7 -17z m2024 -53 c1 -14 -2 -25 -8 -25 -5 0 -7
-8 -3 -19 6 -21 -19 -49 -30 -31 -3 5 -11 10 -16 10 -6 0 -8 -4 -5 -9 4 -5 -3
-7 -14 -4 -23 6 -29 13 -39 51 -8 26 -7 27 33 25 22 0 49 5 60 13 11 8 21 14
21 14 0 0 1 -11 1 -25z m171 19 c-3 -3 -12 -4 -19 -1 -8 3 -5 6 6 6 11 1 17
-2 13 -5z m80 -20 c-3 -3 -12 -4 -19 -1 -8 3 -5 6 6 6 11 1 17 -2 13 -5z
m2310 -186 c-3 -8 -6 -5 -6 6 -1 11 2 17 5 13 3 -3 4 -12 1 -19z m-2818 -37
c9 -16 8 -18 -9 -14 -11 3 -20 12 -20 19 0 20 18 17 29 -5z m2872 -216 c11
-96 7 -177 -6 -163 -3 2 -7 45 -10 94 -3 49 -13 130 -20 179 -20 120 -18 144
5 65 10 -36 24 -115 31 -175z m-2734 193 c-3 -8 -6 -5 -6 6 -1 11 2 17 5 13 3
-3 4 -12 1 -19z m163 -16 c0 -4 -4 -12 -9 -17 -5 -6 -14 -26 -20 -45 -22 -68
-70 -102 -111 -80 -17 9 -27 8 -46 -5 -14 -9 -33 -15 -44 -13 -10 2 -30 -8
-44 -21 -20 -19 -29 -22 -38 -13 -7 7 -18 12 -24 12 -11 0 -74 56 -74 65 0 2
20 11 45 21 45 17 47 17 74 -4 26 -19 30 -19 59 -5 17 8 34 24 37 34 4 10 14
19 22 19 9 0 24 7 34 16 26 24 139 53 139 36z m-353 -54 c-3 -7 -5 -2 -5 12 0
14 2 19 5 13 2 -7 2 -19 0 -25z m40 0 c-3 -7 -5 -2 -5 12 0 14 2 19 5 13 2 -7
2 -19 0 -25z m-1747 -5 c0 -5 -4 -14 -9 -21 -7 -11 -9 -11 -14 1 -3 8 -3 18 0
21 9 8 23 7 23 -1z m60 -59 c0 -8 -4 -12 -10 -9 -5 3 -10 10 -10 16 0 5 5 9
10 9 6 0 10 -7 10 -16z m1410 -5 c0 -5 -4 -9 -10 -9 -5 0 -10 7 -10 16 0 8 5
12 10 9 6 -3 10 -10 10 -16z m-40 -10 c0 -5 -4 -9 -10 -9 -5 0 -10 7 -10 16 0
8 5 12 10 9 6 -3 10 -10 10 -16z m-50 -10 c0 -5 -4 -9 -10 -9 -5 0 -10 7 -10
16 0 8 5 12 10 9 6 -3 10 -10 10 -16z m-45 1 c3 -5 -1 -10 -10 -10 -9 0 -13 5
-10 10 3 6 8 10 10 10 2 0 7 -4 10 -10z m-38 -32 c-3 -8 -6 -5 -6 6 -1 11 2
17 5 13 3 -3 4 -12 1 -19z m3284 -185 c1 -10 3 -42 5 -70 4 -44 2 -53 -12 -53
-13 0 -15 11 -12 70 2 38 6 70 11 70 4 0 7 -8 8 -17z m-2021 -150 c0 -5 -5
-15 -10 -23 -8 -12 -10 -11 -10 8 0 12 5 22 10 22 6 0 10 -3 10 -7z m-59 -62
c-6 -11 -21 -26 -34 -32 -18 -10 -17 -7 6 14 15 14 27 32 27 38 0 7 3 10 6 7
3 -4 1 -16 -5 -27z m-564 -7 c-3 -3 -12 -4 -19 -1 -8 3 -5 6 6 6 11 1 17 -2
13 -5z m2642 -76 c0 -28 -2 -30 -9 -13 -5 12 -9 14 -9 6 -1 -8 -4 -11 -7 -8
-4 4 -2 13 4 20 7 8 9 17 5 20 -3 4 -1 7 5 7 7 0 12 -14 11 -32z m-2010 9 c-2
-1 -13 -9 -24 -17 -19 -14 -19 -14 -6 3 7 9 18 17 24 17 6 0 8 -1 6 -3z m-429
-61 c0 -2 -8 -10 -17 -17 -16 -13 -17 -12 -4 4 13 16 21 21 21 13z m507 -2
c-3 -3 -12 -4 -19 -1 -8 3 -5 6 6 6 11 1 17 -2 13 -5z m-632 -54 c3 -5 -1 -10
-10 -10 -9 0 -13 5 -10 10 3 6 8 10 10 10 2 0 7 -4 10 -10z m-10 -30 c3 -6 -1
-7 -9 -4 -18 7 -21 14 -7 14 6 0 13 -4 16 -10z m-15 -32 c0 -6 -6 -5 -15 2 -8
7 -15 14 -15 16 0 2 7 1 15 -2 8 -4 15 -11 15 -16z m-155 -18 c-3 -5 -11 -10
-16 -10 -6 0 -7 5 -4 10 3 6 11 10 16 10 6 0 7 -4 4 -10z m110 -49 l40 -9 -40
0 c-22 0 -49 3 -60 8 l-20 9 20 0 c11 0 38 -4 60 -8z m865 -1 c8 -5 11 -10 5
-10 -5 0 -17 5 -25 10 -8 5 -10 10 -5 10 6 0 17 -5 25 -10z m-1047 -17 c-7 -2
-19 -2 -25 0 -7 3 -2 5 12 5 14 0 19 -2 13 -5z m2617 -103 c0 -5 -5 -10 -11
-10 -5 0 -7 5 -4 10 3 6 8 10 11 10 2 0 4 -4 4 -10z m-2065 -20 c3 -5 1 -10
-4 -10 -6 0 -11 5 -11 10 0 6 2 10 4 10 3 0 8 -4 11 -10z m-270 -30 c3 -5 1
-10 -4 -10 -6 0 -11 5 -11 10 0 6 2 10 4 10 3 0 8 -4 11 -10z m-85 -35 c-7 -9
-15 -13 -17 -11 -7 7 7 26 19 26 6 0 6 -6 -2 -15z m70 11 c0 -2 -8 -10 -17
-17 -16 -13 -17 -12 -4 4 13 16 21 21 21 13z m1316 -53 c-6 -6 -36 9 -36 18 0
5 9 4 20 -3 10 -7 18 -14 16 -15z m761 5 c-3 -8 -6 -5 -6 6 -1 11 2 17 5 13 3
-3 4 -12 1 -19z m-2129 -28 c-7 -10 -14 -17 -17 -15 -4 4 18 35 25 35 2 0 -1
-9 -8 -20z m66 2 c6 -10 -61 -82 -76 -82 -11 0 5 23 39 56 13 11 20 24 16 27
-3 4 -1 7 5 7 6 0 13 -4 16 -8z m-111 -65 c-3 -7 -17 -28 -29 -48 -13 -20 -20
-40 -17 -43 4 -3 3 -6 0 -6 -3 0 -12 10 -18 23 -6 12 -8 19 -4 15 10 -10 65
63 58 76 -4 5 -1 6 6 2 6 -4 8 -13 4 -19z m217 -7 c0 -5 -5 -10 -11 -10 -5 0
-7 5 -4 10 3 6 8 10 11 10 2 0 4 -4 4 -10z m575 -18 c-3 -3 -11 0 -18 7 -9 10
-8 11 6 5 10 -3 15 -9 12 -12z m1360 -1 c-3 -6 -11 -11 -16 -11 -5 0 -4 6 3
14 14 16 24 13 13 -3z m-1751 -34 c-2 -7 -14 -13 -25 -14 -21 -2 -21 -1 -3 12
24 18 35 19 28 2z m-236 -13 c-1 -5 -9 -9 -16 -10 -10 -2 -11 1 -1 12 12 14
24 13 17 -2z m-305 -38 c-15 -19 -35 -35 -43 -35 -8 0 2 15 24 34 50 44 56 44
19 1z m-538 -16 c14 -7 25 -16 25 -20 0 -4 12 -5 28 -3 l27 4 -27 -16 c-29
-16 -37 -35 -15 -35 8 0 9 -2 1 -8 -7 -4 -13 -14 -15 -23 -3 -13 -9 -15 -29
-7 -15 6 -20 12 -12 15 6 3 12 12 12 21 0 13 -2 14 -9 3 -6 -9 -11 -10 -15 -2
-4 6 -15 7 -30 1 -38 -14 -51 3 -30 36 11 15 18 29 17 31 -9 11 0 23 17 23 11
0 21 6 21 13 1 6 3 5 6 -4 2 -9 15 -22 28 -29z m798 -25 c-3 -9 -8 -14 -10
-11 -3 3 -2 9 2 15 9 16 15 13 8 -4z m152 -15 c3 -5 -1 -10 -9 -10 -8 0 -18 5
-21 10 -3 6 1 10 9 10 8 0 18 -4 21 -10z m1298 -43 c-5 -9 -16 -11 -33 -6
l-25 7 23 7 c12 4 22 15 22 24 1 14 2 14 11 -1 5 -10 6 -24 2 -31z m-2153 13
c0 -5 -6 -13 -14 -17 -7 -4 -16 -15 -19 -23 -4 -10 -6 -7 -6 8 -1 12 4 22 10
22 5 0 7 5 4 10 -3 6 1 10 9 10 9 0 16 -4 16 -10z m1710 5 c0 -7 -30 -13 -34
-7 -3 4 4 9 15 9 10 1 19 0 19 -2z m-1912 -30 c-3 -3 -9 2 -12 12 -6 14 -5 15
5 6 7 -7 10 -15 7 -18z m542 0 c0 -8 -4 -15 -10 -15 -5 0 -7 7 -4 15 4 8 8 15
10 15 2 0 4 -7 4 -15z m-430 -40 c0 -8 -4 -15 -10 -15 -5 0 -10 7 -10 15 0 8
5 15 10 15 6 0 10 -7 10 -15z m60 -10 c14 -16 6 -35 -16 -35 -8 0 -14 -6 -14
-14 0 -8 -7 -22 -16 -31 -20 -20 -13 -29 15 -20 12 3 21 14 21 23 0 15 2 15
10 2 5 -8 10 -10 10 -5 0 12 47 35 54 28 3 -3 1 -15 -5 -27 -10 -21 -10 -21 7
-1 11 14 18 16 21 7 3 -6 8 -10 11 -8 4 2 17 -12 29 -30 12 -19 18 -34 12 -34
-5 0 -12 6 -15 14 -8 21 -43 7 -50 -21 l-6 -24 -14 27 c-8 14 -14 33 -14 40 0
19 -14 18 -31 -2 -8 -10 -22 -14 -39 -10 -15 3 -33 0 -40 -7 -10 -10 -12 -8
-7 6 5 13 0 21 -18 29 -14 6 -25 14 -25 18 0 12 24 28 53 35 16 4 31 14 34 21
3 8 9 11 14 8 5 -3 9 -1 9 5 0 5 -6 12 -12 14 -8 4 -9 6 -2 6 6 1 17 -6 24
-14z m542 -27 c-7 -7 -12 -8 -12 -2 0 6 3 14 7 17 3 4 9 5 12 2 2 -3 -1 -11
-7 -17z m-637 -89 c-4 -5 -14 -9 -23 -10 -11 0 -12 -3 -4 -6 6 -2 12 -9 12
-14 0 -6 -4 -8 -9 -5 -5 4 -11 0 -14 -6 -3 -10 -7 -10 -20 1 -9 7 -14 17 -11
22 3 5 0 9 -5 9 -6 0 -11 3 -11 8 0 4 20 8 45 9 26 1 43 -3 40 -8z"/>
<path d="M2158 5063 c7 -3 16 -2 19 1 4 3 -2 6 -13 5 -11 0 -14 -3 -6 -6z"/>
<path d="M1517 4858 c-16 -12 -15 -13 7 -13 15 0 22 5 19 13 -3 6 -6 12 -7 12
-1 0 -10 -6 -19 -12z"/>
<path d="M2047 4517 c-17 -12 -17 -13 2 -13 12 0 21 4 21 9 0 5 7 3 17 -4 14
-12 16 -12 11 1 -6 20 -29 23 -51 7z"/>
<path d="M1877 4475 c3 -8 9 -12 14 -9 12 7 11 11 -5 17 -10 4 -13 1 -9 -8z"/>
<path d="M1912 4463 c2 -10 12 -19 23 -21 19 -3 19 -2 2 12 -14 10 -15 15 -5
19 8 3 6 6 -5 6 -12 1 -17 -5 -15 -16z"/>
<path d="M884 4414 l-39 -35 43 32 c38 30 48 39 39 39 -2 0 -21 -16 -43 -36z"/>
<path d="M1665 4380 c-3 -5 -1 -10 4 -10 6 0 11 5 11 10 0 6 -2 10 -4 10 -3 0
-8 -4 -11 -10z"/>
<path d="M799 4343 l-34 -38 38 34 c34 33 42 41 34 41 -2 0 -19 -17 -38 -37z"/>
<path d="M1695 4371 c-3 -5 0 -13 6 -17 7 -4 9 -3 5 4 -3 5 0 13 6 15 9 4 10
6 1 6 -6 1 -14 -3 -18 -8z"/>
<path d="M4379 4342 c11 -16 28 -35 38 -43 9 -8 2 5 -17 29 -38 48 -52 57 -21
14z"/>
<path d="M1600 4346 c0 -2 7 -7 16 -10 8 -3 12 -2 9 4 -6 10 -25 14 -25 6z"/>
<path d="M1401 4216 c-8 -10 -9 -16 -1 -21 6 -4 9 -1 8 7 -2 8 4 12 16 10 11
-2 15 1 11 7 -9 15 -20 14 -34 -3z"/>
<path d="M4550 4123 c0 -6 8 -17 18 -24 16 -13 16 -13 2 6 -8 11 -16 22 -17
24 -2 2 -3 0 -3 -6z"/>
<path d="M2689 3903 l-24 -28 28 24 c25 23 32 31 24 31 -2 0 -14 -12 -28 -27z"/>
<path d="M1011 3847 c-13 -21 -12 -21 5 -5 10 10 16 20 13 22 -3 3 -11 -5 -18
-17z"/>
<path d="M2520 3770 c-8 -5 -10 -10 -5 -10 6 0 17 5 25 10 8 5 11 10 5 10 -5
0 -17 -5 -25 -10z"/>
<path d="M866 3664 c-4 -14 -5 -29 -2 -31 3 -3 8 7 12 21 3 15 4 29 1 32 -2 3
-8 -7 -11 -22z"/>
<path d="M4850 3633 c1 -17 57 -173 65 -180 4 -4 5 1 1 12 -4 11 -19 55 -32
98 -22 67 -34 94 -34 70z"/>
<path d="M776 3523 c-6 -14 -5 -15 5 -6 7 7 10 15 7 18 -3 3 -9 -2 -12 -12z"/>
<path d="M2723 3523 c9 -2 23 -2 30 0 6 3 -1 5 -18 5 -16 0 -22 -2 -12 -5z"/>
<path d="M717 3501 c-4 -17 -3 -21 5 -13 5 5 8 16 6 23 -3 8 -7 3 -11 -10z"/>
<path d="M740 3516 c0 -2 8 -10 18 -17 15 -13 16 -12 3 4 -13 16 -21 21 -21
13z"/>
<path d="M4928 3394 c8 -24 17 -43 19 -40 6 6 -16 74 -26 81 -5 2 -1 -16 7
-41z"/>
<path d="M196 3354 c-4 -14 -5 -28 -3 -31 3 -2 8 8 11 23 4 14 5 28 3 31 -3 2
-8 -8 -11 -23z"/>
<path d="M2241 3320 c-13 -11 -19 -20 -13 -20 5 0 15 7 22 15 7 8 16 12 21 9
5 -3 9 0 9 5 0 16 -12 13 -39 -9z"/>
<path d="M2350 3276 c0 -2 8 -10 18 -17 15 -13 16 -12 3 4 -13 16 -21 21 -21
13z"/>
<path d="M2412 3250 c0 -14 2 -19 5 -12 2 6 2 18 0 25 -3 6 -5 1 -5 -13z"/>
<path d="M302 2689 c0 -20 5 -32 16 -36 9 -4 20 -11 24 -17 5 -7 8 -4 8 6 0 9
-7 24 -16 32 -14 15 -14 16 0 16 26 0 18 25 -7 28 -20 1 -24 -3 -25 -29z"/>
<path d="M5065 2710 c3 -5 8 -10 11 -10 2 0 4 5 4 10 0 6 -5 10 -11 10 -5 0
-7 -4 -4 -10z"/>
<path d="M483 2613 c-7 -3 -13 -11 -13 -19 0 -7 -11 -16 -25 -20 -14 -3 -25
-10 -25 -14 0 -5 -10 -6 -22 -2 -21 5 -22 4 -9 -12 8 -9 16 -14 19 -11 10 10
35 -38 37 -71 1 -19 0 -32 -3 -30 -2 3 -11 -1 -19 -9 -10 -10 -20 -12 -38 -5
-19 7 -25 6 -30 -9 -5 -15 -13 -18 -50 -13 -51 5 -56 -2 -20 -30 16 -13 25
-29 25 -48 0 -16 5 -32 12 -36 7 -5 8 -3 3 6 -4 7 -2 16 6 21 22 13 31 11 27
-8 -4 -25 10 -43 27 -36 20 7 19 -25 0 -51 -13 -17 -13 -22 0 -36 15 -17 11
-50 -6 -50 -5 0 -11 11 -15 25 -3 14 -13 25 -23 25 -14 0 -14 -2 -1 -10 13 -8
12 -10 -2 -10 -13 0 -18 -8 -18 -31 0 -26 -3 -29 -14 -20 -10 9 -15 8 -20 -4
-5 -14 5 -20 28 -16 4 1 14 -4 22 -10 12 -9 13 -9 9 4 -13 33 47 34 79 1 9 -8
16 -11 16 -5 0 5 -4 13 -10 16 -5 3 -10 14 -9 23 0 11 3 12 6 5 2 -7 11 -13
20 -13 8 0 13 -6 10 -12 -2 -7 2 -17 8 -23 7 -5 15 -28 18 -50 3 -22 3 -34 0
-27 -4 10 -8 10 -19 1 -20 -16 -17 -33 9 -55 22 -19 22 -19 5 2 -19 22 -24 39
-9 29 5 -3 21 0 36 7 21 10 28 9 35 -2 6 -11 10 -7 15 13 4 15 11 25 15 22 12
-7 22 29 14 49 -6 15 -8 14 -25 -5 -11 -12 -19 -27 -19 -33 0 -6 -5 -5 -12 2
-10 10 -10 15 2 22 10 7 11 10 3 10 -7 0 -13 9 -13 19 0 15 6 19 25 17 21 -3
24 0 20 18 -20 87 -25 119 -19 127 3 5 -3 37 -14 72 -16 48 -20 85 -18 168 2
106 -6 140 -31 132z m-5 -451 c-2 -13 3 -16 25 -14 18 2 27 -2 27 -12 0 -22
-31 -28 -51 -10 -20 18 -27 70 -9 59 6 -4 9 -14 8 -23z"/>
<path d="M288 2503 c-14 -4 -12 -8 9 -31 14 -15 29 -36 34 -47 7 -14 8 -10 3
15 -3 19 -6 40 -7 47 0 15 -16 21 -39 16z"/>
<path d="M2068 2423 c7 -3 16 -2 19 1 4 3 -2 6 -13 5 -11 0 -14 -3 -6 -6z"/>
<path d="M1988 2397 c-7 -8 -19 -12 -26 -9 -6 2 -12 -2 -12 -9 0 -7 -3 -10 -6
-6 -3 3 -19 1 -35 -5 -22 -8 -29 -15 -24 -27 5 -12 3 -13 -6 -4 -8 8 -18 9
-35 1 -13 -6 -24 -14 -24 -17 0 -4 -8 -7 -17 -8 -25 -2 -133 -63 -133 -74 0
-6 -4 -8 -9 -5 -5 3 -20 -5 -34 -18 -14 -13 -28 -22 -31 -19 -2 3 -12 -7 -21
-21 -10 -14 -21 -24 -25 -21 -4 3 -13 -2 -20 -9 -14 -18 3 -56 24 -56 8 0 57
30 111 66 96 66 235 140 308 163 20 7 35 16 32 21 -3 5 5 17 18 27 13 10 22
24 19 31 -5 16 -37 15 -54 -1z m-68 -67 c0 -5 -2 -10 -4 -10 -3 0 -8 5 -11 10
-3 6 -1 10 4 10 6 0 11 -4 11 -10z"/>
<path d="M5071 2314 c0 -11 3 -14 6 -6 3 7 2 16 -1 19 -3 4 -6 -2 -5 -13z"/>
<path d="M5021 2204 c0 -11 3 -14 6 -6 3 7 2 16 -1 19 -3 4 -6 -2 -5 -13z"/>
<path d="M4518 2148 c2 -10 6 -18 7 -18 1 0 5 8 7 18 3 11 0 19 -7 19 -7 0
-10 -8 -7 -19z"/>
<path d="M4496 2091 c-4 -5 1 -8 9 -7 21 3 31 16 12 16 -9 0 -18 -4 -21 -9z"/>
<path d="M586 1988 c3 -10 11 -18 16 -18 6 0 8 -13 6 -30 -2 -16 -1 -31 3 -32
15 -5 15 -71 1 -76 -11 -3 -12 0 -4 15 6 10 8 23 4 29 -8 11 -55 17 -49 6 3
-4 -4 -15 -14 -26 -18 -18 -18 -18 -25 8 -8 32 -26 29 -34 -5 -6 -23 -6 -24
-19 -4 -11 17 -12 17 -7 2 3 -10 6 -25 6 -33 0 -8 14 -28 30 -46 17 -17 30
-37 30 -44 0 -8 7 -14 16 -14 9 0 12 5 8 13 -4 6 -4 9 0 5 5 -4 20 -2 35 3
l26 9 -23 -19 c-28 -25 -37 -60 -16 -68 11 -4 12 -8 4 -13 -7 -4 -10 -16 -8
-25 3 -18 4 -18 21 0 11 10 31 18 46 18 21 0 27 5 29 24 1 13 7 33 12 44 9 15
7 19 -5 19 -13 0 -19 -12 -16 -32 2 -12 -13 -9 -34 6 -17 12 -17 15 -4 29 9 8
26 17 39 19 13 1 25 9 28 16 5 15 -30 16 -46 0 -15 -15 -28 -3 -15 14 18 22
21 91 5 115 -8 13 -12 30 -8 38 3 8 -6 27 -19 42 -15 17 -23 21 -19 11z m-58
-197 c32 -27 27 -35 -8 -14 -16 9 -30 21 -30 25 0 13 13 9 38 -11z m102 -126
c0 -8 -7 -15 -15 -15 -13 0 -14 3 -3 15 16 18 18 18 18 0z"/>
<path d="M4930 1950 c0 -11 -3 -20 -7 -20 -5 0 -9 -21 -10 -48 l-2 -47 16 45
c8 25 15 53 15 63 -1 9 3 15 9 12 5 -4 9 -1 9 4 0 6 -7 11 -15 11 -8 0 -15 -9
-15 -20z"/>
<path d="M406 1947 c-16 -12 -17 -15 -3 -20 10 -4 17 1 20 14 6 23 6 23 -17 6z"/>
<path d="M4394 1736 c-5 -14 -9 -15 -16 -4 -6 9 -7 6 -3 -9 3 -12 1 -25 -6
-29 -8 -4 -9 -3 -5 4 4 7 3 12 -2 12 -5 0 -12 -8 -15 -17 -2 -10 -8 -27 -12
-38 -5 -16 -5 -17 4 -5 9 13 11 13 11 0 0 -11 4 -9 12 5 17 30 32 36 40 17 6
-16 7 -16 7 0 1 9 -4 20 -9 23 -7 4 -6 13 1 26 6 12 8 23 5 26 -3 3 -9 -2 -12
-11z"/>
<path d="M4415 1700 c3 -5 8 -10 11 -10 2 0 4 5 4 10 0 6 -5 10 -11 10 -5 0
-7 -4 -4 -10z"/>
<path d="M4821 1664 c-13 -33 -13 -136 1 -128 4 3 8 0 8 -5 0 -17 27 -13 34 5
3 8 2 13 -3 10 -5 -3 -14 1 -21 9 -10 12 -9 16 5 21 10 4 21 1 26 -7 7 -11 9
-11 9 2 0 9 -8 19 -19 22 -23 6 -34 55 -14 59 12 3 12 6 0 22 -13 18 -14 17
-26 -10z"/>
<path d="M4380 1656 c0 -2 7 -9 15 -16 9 -7 15 -8 15 -2 0 5 -7 12 -15 16 -8
3 -15 4 -15 2z"/>
<path d="M4296 1608 l-18 -33 21 25 c18 22 26 40 18 40 -1 0 -11 -15 -21 -32z"/>
<path d="M4313 1565 c0 -8 4 -12 9 -9 5 3 6 10 3 15 -9 13 -12 11 -12 -6z"/>
<path d="M4275 1519 c-4 -6 -4 -13 -1 -16 3 -4 6 -1 6 6 0 7 5 9 12 5 7 -4 8
-3 4 4 -9 15 -13 15 -21 1z"/>
<path d="M807 1423 c-11 -11 -8 -20 7 -20 8 0 12 6 9 14 -6 15 -7 15 -16 6z"/>
<path d="M770 1405 c0 -9 -10 -20 -22 -25 -13 -5 -19 -9 -13 -9 5 -1 -1 -8
-14 -17 -17 -12 -25 -14 -30 -5 -6 9 -12 7 -22 -5 -11 -14 -11 -18 5 -29 10
-8 15 -18 12 -23 -3 -5 1 -15 9 -22 8 -7 15 -16 15 -20 0 -4 27 -47 60 -95 33
-49 57 -93 53 -99 -3 -6 -3 -8 2 -4 4 4 14 3 22 -4 7 -6 26 -11 42 -10 21 0
40 -11 72 -44 24 -24 39 -44 33 -44 -5 0 -15 5 -22 12 -8 8 -12 9 -12 1 0 -6
7 -19 16 -27 10 -10 11 -16 4 -16 -7 0 -10 -7 -6 -15 10 -27 -12 -16 -43 23
-17 20 -30 31 -31 25 0 -7 10 -23 23 -35 12 -13 21 -26 19 -31 -1 -4 2 -6 6
-5 4 2 29 -18 55 -43 25 -25 50 -43 53 -40 4 3 4 0 0 -6 -12 -21 -16 -54 -5
-48 5 4 7 12 3 18 -3 7 10 -4 28 -24 18 -19 42 -42 53 -50 19 -13 19 -13 5 4
-8 11 -15 27 -17 36 -4 30 32 21 92 -24 32 -25 61 -42 64 -39 3 4 -5 14 -19
23 -60 40 -69 73 -30 108 24 22 67 32 55 13 -7 -12 30 -50 50 -50 8 0 14 -6
12 -12 -1 -8 8 -12 26 -11 24 2 26 -1 17 -17 -7 -13 -7 -21 2 -26 7 -5 8 -3 3
6 -5 9 -4 11 3 6 7 -4 12 -13 12 -20 0 -7 7 -13 15 -13 9 0 14 3 12 6 -1 3 -9
20 -17 36 -8 17 -20 34 -27 38 -7 4 -13 13 -13 18 0 6 4 7 10 4 6 -4 8 6 6 27
-3 18 -6 34 -7 36 -1 1 -2 6 -3 12 0 5 -8 15 -16 22 -12 11 -12 10 -1 -7 7
-11 0 -6 -15 11 -16 18 -38 34 -49 36 -11 2 -19 9 -18 15 1 6 -5 10 -15 9 -9
0 -16 5 -14 12 1 8 -2 11 -7 7 -6 -3 -29 3 -53 15 -46 22 -68 25 -68 10 0 -20
-75 2 -104 31 -17 16 -34 29 -38 29 -5 0 -6 5 -3 10 3 6 2 10 -4 10 -6 0 -13
16 -17 35 -6 32 -8 34 -20 18 -12 -17 -13 -17 -28 2 -8 11 -11 21 -6 23 5 2 3
13 -5 25 -18 28 -5 50 26 45 17 -2 23 1 21 12 -3 11 3 9 20 -5 13 -12 31 -27
41 -34 15 -12 17 -12 11 5 -4 10 -14 28 -23 38 -15 18 -15 19 3 12 19 -6 19
-6 3 12 -18 20 -23 37 -8 27 5 -3 12 -1 15 4 6 10 -11 25 -29 26 -12 1 -44 13
-65 25 -8 4 -14 15 -13 25 0 10 -4 14 -12 11 -7 -2 -22 2 -33 10 -18 12 -20
12 -26 -9 -6 -25 -42 -51 -57 -41 -6 4 -5 14 5 29 8 12 12 32 9 44 -6 24 -23
29 -23 6z m12 -127 c-7 -7 -12 -8 -12 -2 0 14 12 26 19 19 2 -3 -1 -11 -7 -17z
m113 2 c3 -5 1 -10 -4 -10 -6 0 -11 5 -11 10 0 6 2 10 4 10 3 0 8 -4 11 -10z
m-45 -56 c0 -8 7 -14 16 -14 11 0 14 -5 10 -16 -3 -9 -6 -19 -6 -24 0 -4 -7
-10 -15 -14 -22 -8 -52 59 -35 79 14 17 30 11 30 -11z m-79 -31 c13 -16 12
-17 -3 -4 -10 7 -18 15 -18 17 0 8 8 3 21 -13z m273 -244 c-3 -5 -10 -7 -15
-3 -5 3 -7 10 -3 15 3 5 10 7 15 3 5 -3 7 -10 3 -15z m306 -119 c0 -5 -8 -10
-17 -10 -15 0 -16 2 -3 10 19 12 20 12 20 0z"/>
<path d="M4775 1389 c-4 -6 -5 -12 -2 -15 2 -3 7 2 10 11 7 17 1 20 -8 4z"/>
<path d="M4190 1380 c-13 -8 -12 -10 3 -10 14 0 15 -3 5 -19 -6 -10 -17 -17
-24 -14 -15 6 -28 -13 -14 -22 7 -4 6 -13 -1 -27 -8 -15 -8 -19 0 -14 28 18 6
-15 -50 -71 -58 -60 -69 -90 -28 -80 11 3 19 1 19 -5 0 -5 10 -6 22 -3 17 6
20 4 15 -9 -4 -10 -1 -16 7 -16 8 0 16 -7 20 -15 5 -15 -13 -20 -59 -17 -16 2
-17 0 -5 -7 8 -6 11 -13 7 -18 -4 -4 -16 -2 -26 4 -14 9 -21 9 -30 0 -6 -6
-11 -8 -11 -4 0 4 14 16 31 26 18 11 26 22 20 25 -6 4 -11 1 -11 -6 0 -11 -2
-11 -9 0 -9 15 -81 25 -81 11 0 -5 -7 -9 -15 -9 -8 0 -15 -5 -15 -10 0 -6 -31
-31 -70 -56 -38 -24 -75 -54 -80 -65 -6 -11 -15 -17 -21 -14 -5 4 -8 1 -7 -7
2 -7 -7 -14 -20 -16 -12 -2 -20 -7 -17 -12 5 -8 -35 -37 -43 -31 -2 2 -7 -1
-10 -5 -4 -4 0 -4 8 1 8 4 -1 -7 -20 -24 -45 -42 -137 -94 -150 -86 -6 4 -9 1
-8 -7 2 -7 -6 -13 -17 -14 -29 -2 -156 -64 -150 -74 3 -5 0 -12 -6 -16 -20
-12 -78 -22 -81 -13 -2 4 -20 4 -41 0 -24 -6 -39 -5 -44 2 -3 5 -2 7 3 4 6 -3
16 -2 24 3 9 6 -2 11 -33 15 -49 8 -82 1 -73 -14 3 -5 -4 -9 -17 -9 -34 0
-135 -19 -112 -21 19 -2 19 -3 3 -15 -10 -7 -14 -17 -10 -21 4 -4 -3 -5 -16
-2 -12 3 -20 1 -16 -4 3 -5 15 -9 28 -9 12 0 23 -6 23 -14 0 -15 -33 -11 -55
7 -19 15 -35 -12 -19 -33 9 -12 9 -13 -3 -2 -18 16 -51 16 -47 0 1 -8 -6 -12
-18 -11 -11 1 -14 0 -7 -3 6 -3 10 -10 6 -15 -3 -5 0 -9 6 -9 7 0 10 -7 6 -15
-3 -8 -1 -15 4 -15 14 0 21 18 10 25 -15 9 -12 25 5 25 11 0 15 -9 13 -30 -3
-34 -29 -41 -55 -14 -11 11 -18 12 -23 4 -9 -15 -42 -1 -36 16 3 8 1 14 -5 14
-6 0 -8 4 -5 9 3 5 -3 11 -13 14 -13 3 -18 0 -15 -8 7 -18 -118 -19 -236 -1
-96 15 -173 26 -310 46 -41 6 -86 13 -100 16 -24 5 -24 5 -6 -10 19 -16 19
-16 -2 -16 -20 0 -27 10 -23 33 0 4 -4 7 -10 7 -6 0 -8 -7 -5 -16 5 -12 2 -15
-10 -10 -10 4 -22 -1 -30 -11 -11 -15 -15 -16 -23 -4 -5 7 -14 11 -20 7 -7 -5
-9 -1 -5 8 8 20 0 20 -20 0 -23 -22 -20 -29 13 -30 43 -2 61 -11 61 -33 0 -14
-5 -19 -15 -15 -8 4 -15 10 -15 16 0 5 5 6 12 2 7 -4 8 -3 4 4 -8 13 -37 17
-35 4 1 -4 1 -15 0 -25 -1 -22 -36 -19 -36 3 -1 15 -25 15 -35 1 -3 -4 -13
-11 -24 -14 -15 -6 -16 -10 -6 -22 16 -20 40 -19 40 1 0 12 6 15 23 10 12 -3
31 -6 43 -6 40 0 22 -26 -20 -29 -23 -1 -45 -6 -50 -11 -11 -11 1 -30 20 -30
8 0 14 -4 14 -10 0 -5 16 -16 36 -25 31 -13 38 -13 50 -1 8 8 24 18 35 21 17
6 19 9 8 16 -9 5 -11 11 -4 18 11 11 77 -7 92 -24 5 -4 3 -6 -2 -2 -6 3 -17
-3 -24 -15 -7 -11 -8 -17 -2 -13 10 5 13 -1 10 -21 0 -4 5 -11 13 -16 8 -5 4
-6 -13 -2 -17 3 -30 1 -34 -7 -5 -8 -4 -10 3 -5 7 4 12 2 12 -4 0 -8 9 -10 24
-6 15 4 28 1 32 -6 5 -7 2 -9 -9 -5 -9 3 -18 0 -21 -9 -3 -8 -19 -14 -38 -14
-24 0 -29 -3 -21 -11 9 -9 21 -8 50 4 36 14 39 14 39 -3 0 -10 -4 -17 -7 -14
-4 2 -10 0 -13 -5 -3 -5 1 -11 9 -15 8 -3 15 -11 14 -18 0 -10 -2 -10 -6 0 -2
6 -9 10 -14 6 -5 -3 -7 -10 -4 -15 8 -12 45 -12 45 1 0 8 28 8 50 0 3 -2 8 -2
11 -2 3 1 6 -6 6 -14 0 -7 -9 -14 -20 -14 -31 0 -16 -7 28 -14 56 -9 76 -16
70 -26 -8 -13 26 -23 90 -26 33 -1 76 -5 95 -8 19 -3 73 -7 120 -10 47 -3 106
-10 132 -14 44 -9 46 -8 35 9 -7 11 -19 19 -27 19 -13 0 -13 1 0 10 18 12 90
10 90 -3 0 -4 9 -5 20 -2 11 4 20 2 20 -4 0 -6 -15 -12 -32 -12 l-33 -1 30 -7
c17 -4 39 -6 50 -5 11 2 48 5 83 8 35 3 68 9 74 12 6 4 26 7 45 6 23 -1 41 6
56 21 l22 22 -25 3 c-14 2 -36 15 -49 30 -13 15 -20 21 -17 15 4 -7 3 -13 -3
-13 -6 0 -15 9 -21 20 -12 23 -35 27 -26 5 4 -11 -1 -15 -17 -15 -18 0 -19 -2
-7 -10 13 -9 13 -10 0 -10 -21 0 -170 152 -166 170 16 82 35 109 71 102 15 -2
25 0 25 7 0 7 5 9 10 6 6 -4 8 -11 5 -16 -4 -5 -1 -9 4 -9 6 0 11 6 12 13 0 6
6 -6 13 -29 16 -50 48 -84 79 -83 21 0 21 1 2 9 -12 4 -26 14 -33 22 -10 13
-3 14 46 11 83 -5 150 -16 130 -20 -14 -4 -15 -7 -6 -17 7 -7 21 -11 32 -8 13
3 17 1 12 -6 -4 -7 0 -12 11 -13 13 -1 11 -3 -7 -9 -23 -7 -24 -8 -3 -9 12 -1
26 5 30 12 4 8 22 17 38 21 24 5 26 4 13 -4 -34 -20 -18 -28 22 -12 45 19 51
32 18 33 -13 0 -17 3 -10 6 6 2 10 9 7 14 -4 5 2 6 11 2 12 -4 15 -3 10 5 -4
7 -3 12 3 12 5 0 12 -6 15 -12 3 -7 4 -4 3 7 -2 16 19 31 111 76 99 50 112 54
107 35 -2 -11 -2 -15 1 -8 3 6 9 10 13 8 4 -3 20 4 37 15 16 10 24 19 18 19
-5 0 -14 -3 -20 -8 -5 -4 -1 1 10 11 11 10 26 15 34 12 12 -4 12 -3 3 9 -9 11
-7 15 10 19 15 4 32 -2 51 -18 17 -15 35 -22 46 -18 13 5 14 3 6 -6 -9 -9 -17
-10 -31 -2 -15 7 -20 7 -20 -4 0 -7 6 -11 14 -8 30 12 10 -14 -32 -40 -25 -16
-45 -31 -45 -33 0 -6 90 45 118 67 14 10 29 16 36 12 6 -3 8 -3 4 2 -4 4 0 14
9 20 14 10 15 16 5 27 -6 8 -9 18 -5 21 6 7 -14 17 -41 21 -31 4 -46 41 -40
90 4 25 9 46 13 46 3 0 7 12 8 26 1 18 -5 28 -17 31 -23 6 -15 33 11 33 10 0
39 -11 66 -25 47 -25 47 -25 55 -5 4 11 10 20 12 20 3 0 3 -7 0 -15 -4 -10 0
-15 11 -15 17 0 17 -2 -1 -21 -19 -22 -19 -22 4 -10 16 9 27 9 40 1 16 -11 16
-11 -1 -6 -12 4 -25 -2 -38 -16 -26 -32 -24 -46 4 -20 13 12 30 22 39 22 9 0
21 7 28 15 20 24 58 18 85 -12 14 -16 25 -22 25 -14 0 8 6 11 16 7 8 -3 12 -2
9 4 -3 6 -2 10 4 10 5 0 8 8 6 18 -1 9 -8 16 -14 14 -8 -1 -8 4 1 17 10 17 9
23 -6 40 -18 19 -18 21 -2 21 9 0 15 3 12 8 -6 10 16 37 32 38 36 3 42 5 40
12 0 4 2 15 7 25 5 12 11 14 19 8 8 -7 12 -4 13 11 1 12 7 24 13 28 7 4 10 10
8 13 -2 4 82 104 129 152 7 7 9 16 5 21 -4 5 0 3 10 -4 14 -11 17 -10 22 5 9
28 2 51 -22 73 -12 12 -22 25 -22 29 0 14 -33 22 -44 11 -7 -7 -5 -19 7 -39
13 -22 14 -32 6 -37 -8 -4 -9 -3 -5 4 4 7 1 12 -9 12 -10 0 -14 5 -10 13 4 6
0 4 -9 -6 -18 -24 -52 -15 -62 16 -4 12 -6 38 -5 58 2 37 -19 66 -39 54 -8 -5
-6 -11 6 -19 9 -7 13 -16 7 -19 -5 -3 -8 -20 -7 -36 1 -20 -3 -31 -11 -31 -13
0 -27 24 -29 48 -1 8 -12 20 -26 27 -14 8 -20 15 -15 15 6 0 3 5 -5 10 -11 7
-6 10 20 11 32 1 33 2 10 8 -14 4 -24 13 -22 19 3 14 -8 15 -28 2z m17 -85 c0
-8 -4 -15 -8 -15 -5 0 -6 -7 -3 -15 4 -8 1 -15 -4 -15 -15 0 -20 33 -7 47 14
17 22 16 22 -2z m-143 -350 c3 -8 12 -15 21 -15 8 0 15 -7 15 -15 0 -19 -9
-19 -32 2 -17 15 -18 15 -18 -5 0 -23 -20 -32 -20 -9 0 6 -5 4 -11 -6 -10 -16
-12 -16 -29 5 -26 32 -9 49 56 57 7 0 14 -6 18 -14z m-154 -40 c0 -6 16 -9 40
-7 38 4 40 3 40 -23 0 -14 -4 -24 -9 -20 -6 3 -14 -2 -20 -12 -9 -17 -10 -17
-30 1 -13 12 -21 14 -21 7 0 -7 -8 -11 -17 -9 -17 3 -33 43 -26 63 5 14 43 14
43 0z m200 -85 c0 -5 -5 -10 -11 -10 -5 0 -7 5 -4 10 3 6 8 10 11 10 2 0 4 -4
4 -10z m-300 -35 c0 -8 -4 -15 -9 -15 -13 0 -22 16 -14 24 11 11 23 6 23 -9z
m374 -50 c-4 -8 -10 -12 -15 -9 -11 6 -2 24 11 24 5 0 7 -7 4 -15z m-2044
-189 c0 -3 -4 -8 -10 -11 -5 -3 -10 -1 -10 4 0 6 5 11 10 11 6 0 10 -2 10 -4z
m876 -66 c1 -26 -1 -28 -19 -19 -15 8 -22 8 -28 -2 -5 -8 -9 -12 -10 -9 -8 48
-8 54 0 41 6 -9 11 -10 15 -2 4 6 12 9 17 6 5 -4 9 -1 9 4 0 26 15 8 16 -19z
m-221 -41 c4 -6 13 -8 21 -5 7 3 16 1 19 -5 4 -5 10 -7 14 -5 4 3 7 -9 6 -25
0 -18 -5 -29 -14 -29 -7 0 -11 -6 -8 -14 3 -8 -3 -22 -14 -32 -19 -17 -20 -17
-25 2 -3 11 -15 24 -26 29 -33 15 -44 39 -30 69 12 27 45 35 57 15z m300 1 c3
-5 1 -10 -4 -10 -6 0 -11 5 -11 10 0 6 2 10 4 10 3 0 8 -4 11 -10z m-35 -26
c0 -16 -16 -19 -25 -4 -8 13 4 32 16 25 5 -4 9 -13 9 -21z m-1020 -12 c0 -10
-7 -19 -15 -19 -18 0 -19 4 -2 22 16 19 17 18 17 -3z m1080 -10 c0 -10 -4 -11
-12 -5 -7 6 -20 13 -28 16 -8 3 -3 5 13 4 16 -1 27 -7 27 -15z m-253 -57 c0
-8 -4 -15 -9 -15 -10 0 -11 14 -1 23 9 10 10 9 10 -8z m-252 -25 c3 -5 -3 -10
-15 -10 -12 0 -18 5 -15 10 3 6 10 10 15 10 5 0 12 -4 15 -10z m-85 -24 c0 -3
-4 -8 -10 -11 -5 -3 -10 -1 -10 4 0 6 5 11 10 11 6 0 10 -2 10 -4z m-30 -16
c0 -5 -4 -10 -10 -10 -5 0 -10 5 -10 10 0 6 5 10 10 10 6 0 10 -4 10 -10z
m460 -70 c6 -11 8 -20 6 -20 -3 0 -10 9 -16 20 -6 11 -8 20 -6 20 3 0 10 -9
16 -20z m-305 -40 c3 -5 2 -10 -4 -10 -5 0 -13 5 -16 10 -3 6 -2 10 4 10 5 0
13 -4 16 -10z m355 -33 c12 -4 11 -6 -2 -6 -10 -1 -18 -6 -18 -12 0 -5 -4 -8
-9 -5 -5 4 -8 14 -6 24 2 9 4 19 4 22 1 3 5 0 9 -6 4 -6 14 -14 22 -17z m70
13 c-8 -5 -24 -9 -35 -9 -16 1 -16 2 5 9 35 11 48 11 30 0z m-553 -46 c-3 -3
-12 -4 -19 -1 -8 3 -5 6 6 6 11 1 17 -2 13 -5z m466 -11 c-7 -2 -19 -2 -25 0
-7 3 -2 5 12 5 14 0 19 -2 13 -5z"/>
<path d="M4538 1383 c7 -3 16 -2 19 1 4 3 -2 6 -13 5 -11 0 -14 -3 -6 -6z"/>
<path d="M4470 1371 c0 -19 20 -22 36 -7 14 15 13 16 -10 16 -14 0 -26 -4 -26
-9z"/>
<path d="M467 1335 c-3 -20 -1 -22 17 -16 25 9 58 7 77 -4 9 -5 8 -2 -2 9 -9
10 -32 21 -52 25 -32 8 -36 6 -40 -14z"/>
<path d="M568 1343 c7 -3 16 -2 19 1 4 3 -2 6 -13 5 -11 0 -14 -3 -6 -6z"/>
<path d="M1450 1328 c0 -16 -6 -28 -12 -29 -7 0 -5 -4 6 -8 17 -7 17 -8 2 -23
-9 -9 -16 -20 -16 -25 1 -4 9 2 19 15 16 18 24 20 45 12 14 -5 28 -5 31 -1 2
5 -4 11 -15 14 -13 3 -20 14 -20 28 0 12 -3 19 -7 16 -3 -4 -12 1 -19 11 -12
15 -13 14 -14 -10z"/>
<path d="M4471 1331 c-8 -5 -9 -11 -3 -15 5 -3 12 1 16 9 6 17 6 18 -13 6z"/>
<path d="M1580 1301 c0 -5 5 -13 10 -16 6 -3 10 -2 10 4 0 5 -4 13 -10 16 -5
3 -10 2 -10 -4z"/>
<path d="M4656 1286 c7 -19 20 -21 30 -3 4 6 4 9 -1 5 -4 -4 -14 -3 -22 4 -11
8 -12 7 -7 -6z"/>
<path d="M1030 1265 c-9 -40 -4 -60 17 -60 11 0 25 -3 29 -7 4 -5 16 -8 27 -8
11 0 17 3 14 7 -4 3 -2 12 3 18 7 9 5 17 -6 26 -15 12 -16 11 -10 -7 10 -32
-19 -38 -33 -8 -6 14 -15 23 -20 19 -5 -3 -12 3 -14 12 -3 10 -6 14 -7 8z"/>
<path d="M1337 1244 c4 -10 16 -14 42 -12 48 4 42 22 -8 25 -33 2 -39 0 -34
-13z"/>
<path d="M1310 1172 c-19 -9 -19 -33 -1 -53 16 -17 71 -13 71 5 0 6 10 20 23
31 l22 20 -24 3 c-13 2 -28 -2 -32 -10 -7 -10 -9 -10 -9 0 0 13 -25 15 -50 4z
m27 -24 c-3 -8 -6 -5 -6 6 -1 11 2 17 5 13 3 -3 4 -12 1 -19z"/>
<path d="M1170 1140 c-12 -7 -10 -9 7 -7 12 0 19 5 17 9 -6 10 -6 10 -24 -2z"/>
<path d="M3849 1113 c-13 -16 -12 -17 4 -4 9 7 17 15 17 17 0 8 -8 3 -21 -13z"/>
<path d="M732 1098 c-7 -7 -12 -20 -12 -30 0 -10 -4 -18 -9 -18 -16 0 10 -54
35 -73 23 -17 23 -17 17 0 -6 16 -5 16 10 4 15 -12 17 -10 13 18 -2 19 0 28 7
24 6 -4 8 0 4 10 -3 9 -1 18 6 21 9 3 8 5 -1 5 -8 1 -10 6 -6 14 4 6 3 9 -1 4
-5 -4 -18 2 -30 13 -16 15 -24 17 -33 8z"/>
<path d="M4501 1079 c-7 -12 -8 -18 -3 -15 6 3 12 1 14 -6 3 -8 6 -7 10 3 10
27 -6 40 -21 18z"/>
<path d="M1234 1058 c2 -13 9 -22 15 -21 5 2 8 -4 5 -12 -4 -8 -1 -15 4 -15
19 0 22 17 7 30 -8 7 -15 19 -15 26 0 8 -4 14 -10 14 -5 0 -8 -10 -6 -22z"/>
<path d="M4570 1060 c-6 -11 -8 -20 -6 -20 3 0 10 9 16 20 6 11 8 20 6 20 -3
0 -10 -9 -16 -20z"/>
<path d="M3754 1028 c-10 -13 -12 -18 -5 -11 10 8 21 8 47 -3 42 -17 51 -18
51 -1 0 9 -9 12 -25 9 -16 -3 -23 -1 -18 6 4 6 -2 8 -16 4 -14 -3 -19 -2 -14
6 12 20 0 13 -20 -10z"/>
<path d="M4689 1006 c9 -10 11 -28 7 -49 -6 -31 -11 -35 -68 -52 -54 -17 -58
-20 -39 -29 16 -7 28 -6 42 2 10 7 25 12 33 12 19 0 27 -37 10 -51 -12 -10
-13 -9 -8 5 4 11 1 16 -10 16 -12 0 -14 -7 -9 -32 3 -18 6 -34 7 -35 1 -1 17
11 36 27 31 25 33 30 20 45 -15 19 -15 19 55 68 34 25 25 33 -13 13 l-31 -16
-3 42 c-2 33 -7 44 -23 47 -17 3 -18 1 -6 -13z"/>
<path d="M690 961 c0 -11 19 -24 36 -27 6 -1 11 4 11 12 0 7 -4 11 -8 8 -4 -2
-10 0 -14 6 -8 13 -25 13 -25 1z"/>
<path d="M1360 940 c0 -5 7 -10 15 -10 8 0 15 5 15 10 0 6 -7 10 -15 10 -8 0
-15 -4 -15 -10z"/>
<path d="M1430 922 c0 -20 27 -43 43 -36 21 8 22 24 1 24 -8 0 -12 5 -9 10 3
6 -3 10 -14 10 -12 0 -21 -4 -21 -8z"/>
<path d="M3514 856 c-10 -8 -17 -16 -14 -19 3 -2 14 4 24 14 23 22 18 25 -10
5z"/>
<path d="M1446 815 c4 -8 14 -15 23 -15 14 0 14 -2 1 -10 -8 -5 -10 -10 -4
-10 6 0 17 7 24 15 10 12 8 16 -15 25 -34 13 -35 13 -29 -5z"/>
<path d="M3573 823 c4 -6 -4 -10 -19 -10 -13 0 -28 -3 -31 -7 -9 -9 17 -36 35
-36 8 0 12 3 9 7 -4 3 0 14 9 24 12 13 12 19 3 25 -7 4 -10 3 -6 -3z"/>
<path d="M4704 818 c-4 -6 -2 -14 4 -16 21 -7 2 -22 -27 -22 -38 0 -81 -48
-92 -102 -5 -29 -4 -47 4 -55 9 -10 11 0 10 40 -2 46 -1 49 8 25 6 -16 17 -28
25 -28 7 0 11 -6 8 -13 -2 -7 4 -21 15 -31 19 -18 27 -16 68 12 16 10 -1 78
-21 85 -11 5 -12 -1 -3 -29 9 -29 8 -37 -3 -44 -20 -13 -33 13 -28 56 5 41 -2
43 -24 7 -14 -24 -18 -26 -23 -10 -10 25 0 44 36 62 22 12 34 14 42 6 21 -21
34 -11 35 29 1 29 -2 40 -12 40 -8 0 -18 -5 -22 -12z"/>
<path d="M985 800 c4 -6 11 -8 16 -5 14 9 11 15 -7 15 -8 0 -12 -5 -9 -10z"/>
<path d="M3497 784 c-11 -11 3 -24 18 -18 8 4 12 10 9 15 -6 11 -18 12 -27 3z"/>
<path d="M4596 759 c-21 -16 -35 -29 -30 -29 6 0 25 13 44 30 45 37 37 37 -14
-1z"/>
<path d="M3434 742 c-22 -15 -54 -34 -72 -41 -18 -8 -31 -15 -29 -17 6 -6 131
46 145 61 28 26 -6 24 -44 -3z"/>
<path d="M4236 753 c-3 -10 -9 -24 -12 -32 -4 -8 -2 -11 4 -7 6 3 13 0 16 -6
3 -7 4 -4 3 7 -1 11 3 19 8 18 6 -1 11 7 11 18 0 24 -22 25 -30 2z"/>
<path d="M1060 740 c0 -5 5 -10 11 -10 5 0 7 5 4 10 -3 6 -8 10 -11 10 -2 0
-4 -4 -4 -10z"/>
<path d="M1527 744 c-4 -4 1 -13 11 -20 16 -12 16 -13 -3 -15 -11 -1 -26 -1
-33 0 -7 1 -15 -5 -18 -13 -3 -9 -11 -13 -18 -9 -6 4 -5 -1 3 -10 7 -9 22 -17
32 -17 10 0 21 -5 24 -10 7 -12 25 -4 25 11 0 5 -12 9 -26 9 -23 0 -25 2 -14
16 10 11 23 14 54 8 35 -6 39 -4 28 8 -6 8 -9 18 -5 21 6 7 -13 11 -31 8 -5
-1 -12 3 -16 9 -3 5 -9 7 -13 4z"/>
<path d="M1718 705 c-15 -19 -15 -23 -3 -21 22 3 35 19 27 33 -5 7 -13 3 -24
-12z"/>
<path d="M3945 720 c-3 -6 1 -7 9 -4 18 7 21 14 7 14 -6 0 -13 -4 -16 -10z"/>
<path d="M4047 694 c-16 -19 -27 -37 -25 -40 10 -9 60 44 56 60 -2 12 -10 8
-31 -20z"/>
<path d="M4210 690 c13 -9 13 -10 0 -10 -9 0 -16 -9 -17 -20 -3 -30 31 -25 52
8 18 27 18 27 -2 10 -23 -21 -40 -24 -24 -5 11 14 5 27 -13 27 -6 0 -4 -5 4
-10z"/>
<path d="M3070 669 c-35 -12 -43 -16 -20 -12 40 7 112 32 90 31 -8 0 -40 -8
-70 -19z"/>
<path d="M3940 670 c0 -5 5 -10 10 -10 6 0 10 5 10 10 0 6 -4 10 -10 10 -5 0
-10 -4 -10 -10z"/>
<path d="M3280 661 c0 -6 4 -12 8 -15 5 -3 9 1 9 9 0 8 -4 15 -9 15 -4 0 -8
-4 -8 -9z"/>
<path d="M3310 660 c0 -6 7 -10 15 -10 8 0 15 2 15 4 0 2 -7 6 -15 10 -8 3
-15 1 -15 -4z"/>
<path d="M2988 643 c7 -3 16 -2 19 1 4 3 -2 6 -13 5 -11 0 -14 -3 -6 -6z"/>
<path d="M3945 601 c0 -48 0 -48 21 -32 13 9 18 19 12 22 -6 4 -5 9 3 12 11 5
10 9 -3 20 -10 8 -15 17 -11 20 3 4 0 7 -8 7 -10 0 -14 -13 -14 -49z"/>
<path d="M2938 633 c7 -3 16 -2 19 1 4 3 -2 6 -13 5 -11 0 -14 -3 -6 -6z"/>
<path d="M1840 620 c0 -5 10 -10 23 -10 18 0 19 2 7 10 -19 13 -30 13 -30 0z"/>
<path d="M2210 620 c19 -5 67 -11 105 -14 l70 -6 -85 15 c-92 15 -147 18 -90
5z"/>
<path d="M2793 603 c9 -2 25 -2 35 0 9 3 1 5 -18 5 -19 0 -27 -2 -17 -5z"/>
<path d="M1990 575 c-9 -10 -9 -15 -1 -15 6 0 11 5 11 11 0 6 7 8 16 5 8 -3
12 -2 9 4 -9 14 -21 12 -35 -5z"/>
<path d="M2848 583 c7 -3 16 -2 19 1 4 3 -2 6 -13 5 -11 0 -14 -3 -6 -6z"/>
<path d="M4730 572 c0 -4 9 -13 20 -19 16 -11 18 -10 14 1 -6 15 -34 30 -34
18z"/>
<path d="M1580 562 c0 -7 -8 -12 -17 -12 -17 -1 -17 -1 0 -14 19 -15 23 -31 5
-20 -9 5 -9 3 1 -9 7 -9 17 -14 22 -11 5 2 19 -2 33 -11 23 -16 24 -15 19 4
-3 12 -9 21 -14 21 -5 0 -9 6 -9 13 0 8 -9 22 -20 32 -11 10 -20 13 -20 7z"/>
<path d="M1682 551 c-10 -6 -7 -10 11 -13 18 -4 24 -1 20 9 -6 15 -13 16 -31
4z"/>
<path d="M2875 550 c4 -6 11 -8 16 -5 14 9 11 15 -7 15 -8 0 -12 -5 -9 -10z"/>
<path d="M4617 543 c3 -10 12 -23 20 -30 16 -12 8 -38 -8 -28 -5 4 -9 1 -9 -5
0 -7 -7 -10 -15 -7 -8 4 -17 2 -19 -2 -7 -11 43 -33 55 -25 6 3 9 -21 8 -64
-1 -38 1 -74 5 -80 4 -6 -2 -8 -14 -5 -11 3 -23 9 -26 14 -3 5 -10 9 -16 9
-16 0 15 -32 51 -53 l31 -18 -7 32 c-5 29 -4 32 13 26 14 -6 13 -3 -5 12 -16
12 -22 24 -18 35 4 10 11 14 17 11 5 -3 10 -2 10 3 0 6 -7 12 -15 16 -24 9
-19 61 8 73 36 17 31 49 -11 78 -43 30 -64 32 -55 8z m57 -18 c11 -8 15 -15
10 -15 -6 0 -19 7 -30 15 -10 8 -14 14 -9 14 6 0 19 -6 29 -14z"/>
<path d="M3775 520 c4 -6 11 -8 16 -5 14 9 11 15 -7 15 -8 0 -12 -5 -9 -10z"/>
<path d="M2796 495 c-3 -8 -1 -15 4 -15 6 0 10 7 10 15 0 8 -2 15 -4 15 -2 0
-6 -7 -10 -15z"/>
<path d="M1436 482 c-3 -5 5 -14 19 -20 18 -8 26 -8 35 3 8 10 8 15 -1 21 -8
4 -9 3 -5 -4 9 -15 -16 -16 -31 -1 -6 6 -13 7 -17 1z"/>
<path d="M3770 470 c0 -5 5 -10 11 -10 5 0 7 5 4 10 -3 6 -8 10 -11 10 -2 0
-4 -4 -4 -10z"/>
<path d="M1360 461 c0 -6 4 -13 10 -16 6 -3 7 1 4 9 -7 18 -14 21 -14 7z"/>
<path d="M1560 459 c29 -19 70 -39 70 -34 0 7 -63 45 -75 45 -5 0 -3 -5 5 -11z"/>
<path d="M3703 440 c-36 -22 -44 -45 -13 -37 10 3 22 0 25 -7 3 -6 3 -1 1 11
-2 13 3 28 13 35 15 12 15 11 1 -6 -14 -18 -14 -19 8 -7 24 13 30 31 10 31 -7
0 -28 -9 -45 -20z"/>
<path d="M105 357 c-3 -23 -5 -91 -3 -152 3 -105 4 -110 26 -113 25 -4 29 10
7 28 -9 8 -15 8 -15 2 0 -6 6 -13 13 -15 8 -4 7 -6 -4 -6 -12 -1 -16 10 -17
50 -1 43 2 52 21 60 l22 10 -22 -5 c-15 -3 -23 1 -23 10 0 8 7 11 18 8 10 -4
13 -3 6 3 -6 4 -14 30 -18 57 -3 27 -3 47 0 43 4 -3 15 0 25 7 20 14 82 9 73
-5 -3 -5 -10 -6 -16 -3 -7 4 -8 2 -4 -4 8 -14 36 -4 36 12 0 7 7 21 16 32 8
10 13 13 9 7 -3 -7 -1 -13 4 -13 6 0 11 5 11 10 0 14 26 12 38 -3 8 -9 7 -20
-2 -39 -13 -24 -12 -26 2 -21 10 4 13 2 8 -5 -4 -7 -14 -12 -22 -12 -8 0 -14
-4 -14 -10 0 -5 7 -7 15 -4 12 5 15 -2 15 -32 0 -63 9 -32 12 40 1 37 6 69 9
72 4 2 6 -32 4 -76 -1 -44 1 -80 6 -80 4 0 7 37 6 83 -2 67 -5 81 -17 79 -12
-3 -13 -1 -2 9 26 27 33 -6 30 -147 l-3 -139 -70 0 c-67 0 -70 1 -72 25 -1 14
0 19 3 12 3 -7 14 -17 25 -22 41 -23 78 38 48 80 -8 12 -9 10 -4 -7 9 -32 -3
-63 -21 -56 -11 4 -12 9 -4 18 13 15 -3 30 -20 20 -6 -4 -10 7 -10 24 0 23 5
31 18 31 9 0 24 5 32 10 10 6 4 9 -23 7 -38 -2 -38 -2 -35 -42 2 -24 8 -39 15
-38 6 2 11 -6 10 -17 -2 -27 -11 -25 -27 5 -17 32 -31 14 -20 -26 7 -24 5 -28
-13 -32 -12 -2 19 -5 69 -6 58 -1 94 3 102 11 17 17 17 282 -1 296 -7 6 -62
11 -129 11 l-117 0 -6 -42z m83 18 c20 -4 32 -3 32 4 0 6 5 11 11 11 8 0 8 -4
-1 -15 -10 -12 -64 -15 -90 -5 -3 1 -8 2 -12 1 -5 0 -8 4 -8 10 0 6 8 8 18 5
9 -2 32 -7 50 -11z m-51 -21 c-3 -3 -12 -4 -19 -1 -8 3 -5 6 6 6 11 1 17 -2
13 -5z"/>
<path d="M1490 386 c0 -3 9 -10 20 -16 11 -6 20 -8 20 -6 0 3 -9 10 -20 16
-11 6 -20 8 -20 6z"/>
<path d="M3679 373 c-13 -16 -12 -17 4 -4 9 7 17 15 17 17 0 8 -8 3 -21 -13z"/>
<path d="M279 352 c-3 -20 -2 -29 4 -23 5 5 7 19 5 32 -3 20 -5 19 -9 -9z"/>
<path d="M1800 365 c0 -8 7 -15 15 -15 9 0 12 6 9 15 -4 8 -10 15 -15 15 -5 0
-9 -7 -9 -15z"/>
<path d="M1873 355 c0 -8 4 -15 9 -15 4 0 8 7 8 15 0 8 -4 15 -8 15 -5 0 -9
-7 -9 -15z"/>
<path d="M247 353 c-4 -3 -7 -13 -7 -22 1 -13 3 -13 11 2 11 19 8 33 -4 20z"/>
<path d="M3510 340 c-9 -6 -10 -10 -3 -10 6 0 15 5 18 10 8 12 4 12 -15 0z"/>
<path d="M3600 340 c-9 -6 -10 -10 -3 -10 6 0 15 5 18 10 8 12 4 12 -15 0z"/>
<path d="M163 313 c0 -15 2 -22 4 -15 3 6 9 12 14 12 6 0 8 -4 5 -9 -4 -5 3
-7 14 -4 11 3 23 9 26 14 3 5 -2 6 -11 3 -9 -4 -24 1 -34 10 -18 16 -18 15
-18 -11z"/>
<path d="M1640 332 c0 -15 18 -34 29 -31 7 3 3 11 -9 21 -11 10 -20 14 -20 10z"/>
<path d="M1701 324 c0 -11 3 -14 6 -6 3 7 2 16 -1 19 -3 4 -6 -2 -5 -13z"/>
<path d="M1917 320 c-3 -11 -11 -19 -18 -18 -8 2 -15 -7 -17 -19 -5 -31 16
-29 30 2 6 13 14 22 18 20 10 -6 21 21 13 29 -12 11 -21 6 -26 -14z"/>
<path d="M3563 333 c4 -3 -1 -12 -11 -20 -15 -13 -15 -13 6 -3 19 9 23 30 5
30 -4 0 -3 -3 0 -7z"/>
<path d="M138 315 c-13 -14 12 -45 37 -45 13 0 26 4 29 8 3 5 -8 6 -24 4 -23
-3 -29 0 -32 18 -2 12 -6 19 -10 15z"/>
<path d="M3158 313 c6 -2 18 -2 25 0 6 3 1 5 -13 5 -14 0 -19 -2 -12 -5z"/>
<path d="M3435 310 c-3 -6 1 -7 9 -4 18 7 21 14 7 14 -6 0 -13 -4 -16 -10z"/>
<path d="M3474 300 c-6 -6 -20 -12 -32 -15 -12 -2 -44 -14 -72 -27 -44 -20
-50 -26 -50 -53 0 -17 -5 -36 -11 -42 -9 -9 -7 -11 9 -6 12 3 24 13 27 23 9
27 45 46 90 45 22 0 42 3 45 6 3 3 25 17 50 32 36 21 40 27 23 27 -13 0 -23 4
-23 8 0 12 -45 13 -56 2z"/>
<path d="M230 290 c0 -5 7 -7 15 -4 8 4 15 8 15 10 0 2 -7 4 -15 4 -8 0 -15
-4 -15 -10z"/>
<path d="M2046 284 c-12 -11 -14 -20 -7 -27 6 -6 15 -4 27 7 11 12 13 21 7 27
-7 7 -16 5 -27 -7z"/>
<path d="M3113 262 c-13 -2 -23 -8 -23 -13 0 -12 47 -12 55 0 7 13 -5 18 -32
13z"/>
<path d="M3295 260 c-16 -7 -17 -9 -3 -9 9 -1 20 4 23 9 7 11 7 11 -20 0z"/>
<path d="M1931 224 c0 -11 3 -14 6 -6 3 7 2 16 -1 19 -3 4 -6 -2 -5 -13z"/>
<path d="M4700 227 c0 -7 -9 -18 -21 -25 -16 -11 -19 -19 -14 -45 8 -34 31
-67 48 -67 6 0 3 8 -6 18 -22 25 -25 76 -4 96 9 10 15 22 12 27 -8 13 -15 11
-15 -4z"/>
<path d="M249 201 c9 -6 10 -10 2 -14 -8 -4 -8 -5 1 -3 20 4 21 26 1 26 -14 0
-15 -2 -4 -9z"/>
<path d="M313 194 c0 -16 6 -17 25 -5 11 6 9 9 -5 13 -12 3 -20 0 -20 -8z"/>
<path d="M161 184 c0 -11 3 -14 6 -6 3 7 2 16 -1 19 -3 4 -6 -2 -5 -13z"/>
<path d="M185 189 c-4 -6 -4 -13 -1 -16 3 -4 6 -1 6 6 0 7 5 9 10 6 6 -3 10
-1 10 4 0 14 -17 14 -25 0z"/>
<path d="M3470 190 c-8 -5 -10 -10 -5 -10 6 0 17 5 25 10 8 5 11 10 5 10 -5 0
-17 -5 -25 -10z"/>
<path d="M120 175 c0 -8 5 -15 10 -15 6 0 10 -6 10 -14 0 -15 37 -32 47 -23 2
3 -6 9 -19 13 -22 7 -22 7 -3 15 15 6 16 8 4 8 -9 1 -19 8 -23 16 -3 8 -10 15
-16 15 -5 0 -10 -7 -10 -15z"/>
<path d="M341 154 c0 -11 3 -14 6 -6 3 7 2 16 -1 19 -3 4 -6 -2 -5 -13z"/>
<path d="M309 113 c-13 -16 -12 -17 3 -5 9 8 22 11 28 7 5 -3 10 -1 10 4 0 17
-26 13 -41 -6z"/>
</g>
</svg>
